<svg xmlns="http://www.w3.org/2000/svg" viewBox="0 0 27.98 8.59"><defs><style>.cls-1{fill:#fff;}</style></defs><title>apk</title><g id="圖層_2" data-name="圖層 2"><g id="圖層_1-2" data-name="圖層 1"><path class="cls-1" d="M6.14,7.17h-3L2.71,8.59H0L3.23,0h2.9L9.35,8.59H6.57ZM5.59,5.31,4.64,2.23,3.71,5.31Z"/><path class="cls-1" d="M10.18,0H14.6a3,3,0,0,1,2.16.69,2.57,2.57,0,0,1,.72,2,2.65,2.65,0,0,1-.78,2,3.39,3.39,0,0,1-2.39.73H12.85V8.59H10.18Zm2.67,3.66h.65a1.67,1.67,0,0,0,1.08-.27.86.86,0,0,0,.31-.68A1,1,0,0,0,14.62,2a1.4,1.4,0,0,0-1-.28h-.76Z"/><path class="cls-1" d="M18.87,0h2.65V3.25L24.31,0h3.53L24.7,3.24,28,8.59H24.71L22.9,5.06,21.53,6.49v2.1H18.87Z"/></g></g></svg>