<svg xmlns="http://www.w3.org/2000/svg" width="197.297" height="45.756" viewBox="0 0 1972.97 457.56">
  <metadata><?xpacket begin="﻿" id="W5M0MpCehiHzreSzNTczkc9d"?>
<x:xmpmeta xmlns:x="adobe:ns:meta/" x:xmptk="Adobe XMP Core 5.6-c138 79.159824, 2016/09/14-01:09:01        ">
   <rdf:RDF xmlns:rdf="http://www.w3.org/1999/02/22-rdf-syntax-ns#">
      <rdf:Description rdf:about=""/>
   </rdf:RDF>
</x:xmpmeta>
                                                                                                    
                                                                                                    
                                                                                                    
                                                                                                    
                                                                                                    
                                                                                                    
                                                                                                    
                                                                                                    
                                                                                                    
                                                                                                    
                                                                                                    
                                                                                                    
                                                                                                    
                                                                                                    
                                                                                                    
                                                                                                    
                                                                                                    
                                                                                                    
                                                                                                    
                                                                                                    
                           
<?xpacket end="w"?></metadata>
<defs>
    <style>
      .cls-1 {
        fill: #fff;
        fill-rule: evenodd;
      }
    </style>
  </defs>
  <path id="logo-b" class="cls-1" d="M2128.92,1283.37a70.16,70.16,0,0,0-9.77,1l40.84-98.22q53.115,23.055,76.55,52.99,23.43,29.955,23.43,74.29,0,55.635-37.96,93.72t-93.09,38.08q-52.11,0-91.08-38.21t-38.96-89.33q0-23.55,18.29-74.16l57.63-158.86,89.95,31.82-66.65,186.92a41.449,41.449,0,0,0-3,14.28,31.453,31.453,0,0,0,10.02,23.31,32.937,32.937,0,0,0,23.8,9.77,31.487,31.487,0,0,0,23.43-9.9,33.034,33.034,0,0,0,9.65-23.93,32.608,32.608,0,0,0-9.65-23.8A31.667,31.667,0,0,0,2128.92,1283.37Zm-277,161.86q-52.11,0-91.08-38.21t-38.96-89.33q0-23.55,18.29-74.16l57.63-158.86,89.95,31.82-66.65,186.92a41.449,41.449,0,0,0-3,14.28,31.453,31.453,0,0,0,10.02,23.31,32.937,32.937,0,0,0,23.8,9.77,31.487,31.487,0,0,0,23.43-9.9,33.034,33.034,0,0,0,9.65-23.93,32.608,32.608,0,0,0-9.65-23.8,31.667,31.667,0,0,0-23.43-9.77,70.16,70.16,0,0,0-9.77,1l40.84-98.22q53.115,23.055,76.55,52.99,23.43,29.955,23.43,74.29,0,55.635-37.96,93.72T1851.92,1445.23Zm-276,0q-52.11,0-91.08-38.21t-38.96-89.33q0-23.55,18.29-74.16l57.63-158.86,89.95,31.82-66.65,186.92a41.449,41.449,0,0,0-3,14.28,31.453,31.453,0,0,0,10.02,23.31,32.937,32.937,0,0,0,23.8,9.77,31.487,31.487,0,0,0,23.43-9.9,33.034,33.034,0,0,0,9.65-23.93,32.608,32.608,0,0,0-9.65-23.8,31.667,31.667,0,0,0-23.43-9.77,70.16,70.16,0,0,0-9.77,1l40.84-98.22q53.115,23.055,76.55,52.99,23.43,29.955,23.43,74.29,0,55.635-37.96,93.72T1575.92,1445.23Zm-188.97-4.52H1285.22V1250.78l-97.47-152.09h103.23l44.1,70.41,47.36-70.41h101.22l-96.71,152.09v189.93Zm-307.7-214.23q0-20.04-4.76-27.81t-17.04-7.77q-23.805,0-23.8,35.58v42.6h29.32v90.2h-29.32v81.43H931.922V1223.22q0-63.135,34.453-98.09t96.845-34.96q60.135,0,88.95,31.7,28.8,31.7,28.81,97.84v221H1079.25V1226.48ZM790.855,1408.26q-31.072-32.445-31.07-90.07v-219.5H861.514V1301.9q0,23.8,7.642,31.7t30.193,7.89h5.262v99.22H877.55Q821.924,1440.71,790.855,1408.26Zm-326.173,64.31V1243.38q0-35.925,28.943-35.93,28.632,0,28.637,26.19,0,28.62-37.473,28.62v109.01l18.889,0.31q71.291,0,106.631-35.02Q649,1298.505,649,1237.29q0-63.03-43.109-105.66T499.413,1089a168.682,168.682,0,0,0-67.939,14.31q-32.9,14.325-54.838,38.98-19.5,22.23-27.572,47.96t-8.073,65.92v191.09Q287.008,1393.65,287,1246.51q0-340.335,288.76-180.36,5.882,3.255,11.885,6.72,300.645,173.64,0,347.27Q518.119,1460.3,464.682,1472.57Z" transform="translate(-287 -1015)"/>
</svg>
