<svg xmlns="http://www.w3.org/2000/svg" viewBox="0 0 26.55 26.1"><defs><style>.cls-1{fill:#fff;}</style></defs><title>play</title><g id="圖層_2" data-name="圖層 2"><g id="圖層_1-2" data-name="圖層 1"><path class="cls-1" d="M3.24,19v-8.4H.42V8.49H3.24V2.31h-3V.3h10v2H7.32V8.49H9.75v2.07H7.32v6.69c1.17-.57,2.34-1.17,3.48-1.8l.3.33c-3.33,4.17-4.95,5.67-9.72,8.16L0,20.16A29.83,29.83,0,0,0,3.24,19ZM10.32,8.7v-2h16v2H23.13V21.09c0,.12-.06,1,.18,1,.78,0,1.38-1.65,1.65-2.13.15-.27.33-.57.51-.84l.42.09a8.14,8.14,0,0,0-.6,2.52c0,1.14,1.26.9,1.26,1.68a1.48,1.48,0,0,1-.33.69A6,6,0,0,1,25,25.23a4.71,4.71,0,0,1-2.76.72,4,4,0,0,1-2.67-.84,2.57,2.57,0,0,1-.6-1.89V8.7H16.83v5.43c0,2.67-.33,5.58-2.22,7.62A10.51,10.51,0,0,1,12,23.91a38.59,38.59,0,0,1-4.8,2.19L7,25.86c2.19-1.65,4.47-3.84,5-6.66a31.27,31.27,0,0,0,.66-6.48l0-4ZM25.41,0V2h-14V0Z"/></g></g></svg>